<?xml version="1.0" encoding="utf-8"?>
<!-- Generator: Adobe Illustrator 18.0.0, SVG Export Plug-In . SVG Version: 6.00 Build 0)  -->
<!DOCTYPE svg PUBLIC "-//W3C//DTD SVG 1.1//EN" "http://www.w3.org/Graphics/SVG/1.1/DTD/svg11.dtd">
<svg version="1.1" id="Layer_1" xmlns="http://www.w3.org/2000/svg" xmlns:xlink="http://www.w3.org/1999/xlink" x="0px" y="0px"
	 viewBox="0 0 260.7 259.6" enable-background="new 0 0 260.7 259.6" xml:space="preserve">
<linearGradient id="SVGID_3_" gradientUnits="userSpaceOnUse" x1="130.3709" y1="258.5606" x2="130.3709" y2="0">
	<stop  offset="0" style="stop-color:#172A17"/>
	<stop  offset="1" style="stop-color:#80C788"/>
</linearGradient>
<path fill="url(#SVGID_3_)" d="M130.4,0C58.4,0,0,58.4,0,130.4c0,51.3,29.6,95.6,72.7,116.9c0.4,0.2,0.7,0.3,1.1,0.5
	c0.2,0.1,0.3,0.2,0.5,0.2c0.8-0.5,1.9-0.7,3-0.2c32.1,15.9,73.8,12.7,105.9-0.9c1.5-0.6,2.9-0.1,3.7,0.9c0.1-0.1,0.3-0.1,0.4-0.2
	c0.2-0.1,0.3-0.2,0.5-0.3c43.2-21.2,73-65.7,73-117.1C260.7,58.4,202.4,0,130.4,0z"/>
<path fill="#EAD57E" d="M131.9,161.7h65.5v-41.4l-66.3-34.8l-67.6,36.2v122.6c20.2,9.8,42.8,15.3,66.8,15.3h0.2c0.4,0,0.9,0,1.3,0
	V161.7z"/>
<polygon fill="#D6C16A" points="130.9,85.4 63.7,120 63.7,163.3 130.9,163.3 "/>
<path fill="#D6C16A" d="M198,163.5v80.4c-0.2,0.1-0.4,0.2-0.6,0.3c-0.2,0.1-0.4,0.2-0.6,0.3c-3.8,1.8-7.6,3.5-11.6,5
	c-0.3,0.1-0.7,0.2-1,0.4c-8.9,3.3-18.2,5.9-27.7,7.5c-8.3,1.4-16.9,2.2-25.8,2.2v-96.1H198z"/>
<path fill="#FFF098" d="M234.3,146.3l-32.1-19.2c0,0,0,0,0,0l-4.8-2.9l-4.8,2.8l0,0l-57.6,33.3c0,0,0,0,0,0l-4.8,2.8l4.8,2.9
	c0,0,0,0,0,0l13.6,8.1l11.4,6.9l0,0l7.1,4.2c2.6,1.6,6.9,1.6,9.6,0.1l57.6-33.3C236.9,150.4,236.9,147.9,234.3,146.3z"/>
<path fill="#FFF098" d="M131,85.3l-3.7-2.2c0,0,0,0,0,0L95.3,63.9c-2.6-1.6-6.9-1.6-9.6-0.1L28.1,97.1c-2.7,1.5-2.7,4.1,0,5.7
	L60.1,122c0,0,0,0,0,0l3.5,2.1L131,85.3z"/>
<path fill="#FFF098" d="M130.7,85.4l3.4-2.1c0,0,0,0,0,0l32.1-19.2c2.6-1.6,6.9-1.6,9.6-0.1l57.6,33.3c2.7,1.5,2.7,4.1,0,5.7
	l-32.1,19.2l0,0l-3.5,2.1L130.7,85.4z"/>
<path fill="#FFF098" d="M125.7,165.8l4.8-2.9l-4.8-2.8c0,0,0,0,0,0l-57.6-33.3h0l-4.8-2.8l-4.8,2.9l0,0l-32.1,19.2
	c-2.6,1.6-2.6,4.1,0,5.7l51,29.5l1.8,1l0,0l4.8,2.8c2.7,1.5,7,1.5,9.6-0.1l8.7-5.3c0,0,0,0,0,0l13.7-8.2L125.7,165.8
	C125.7,165.8,125.7,165.8,125.7,165.8z"/>
<g opacity="0.8">
	<defs>
		<path id="SVGID_5_" opacity="0.8" d="M86.5,138.8c0,16.3,9.5,30.4,23.2,37.1L90,122C87.7,127.2,86.5,132.8,86.5,138.8z
			 M155.5,136.7c0-5.1-1.8-8.6-3.4-11.4c-2.1-3.4-4-6.3-4-9.7c0-3.8,2.9-7.3,6.9-7.3c0.2,0,0.4,0,0.5,0
			c-7.3-6.7-17.1-10.8-27.8-10.8c-14.4,0-27.1,7.4-34.4,18.6c1,0,1.9,0.1,2.6,0.1c4.3,0,11-0.5,11-0.5c2.2-0.1,2.5,3.1,0.3,3.4
			c0,0-2.2,0.3-4.7,0.4l15,44.6l9-27l-6.4-17.6c-2.2-0.1-4.3-0.4-4.3-0.4c-2.2-0.1-2-3.5,0.3-3.4c0,0,6.8,0.5,10.8,0.5
			c4.3,0,11-0.5,11-0.5c2.2-0.1,2.5,3.1,0.3,3.4c0,0-2.2,0.3-4.7,0.4l14.9,44.3l4.1-13.7C154.4,144.7,155.5,140.3,155.5,136.7z
			 M128.4,142.4L116,178.3c3.7,1.1,7.6,1.7,11.6,1.7c4.8,0,9.4-0.8,13.7-2.3c-0.1-0.2-0.2-0.4-0.3-0.6L128.4,142.4z M163.8,119
			c0.2,1.3,0.3,2.7,0.3,4.2c0,4.2-0.8,8.9-3.1,14.8l-12.6,36.4c12.2-7.1,20.5-20.4,20.5-35.6C168.9,131.6,167,124.9,163.8,119z"/>
	</defs>
	<clipPath id="SVGID_4_">
		<use xlink:href="#SVGID_5_"  overflow="visible"/>
	</clipPath>
	<path clip-path="url(#SVGID_4_)" fill="#353535" d="M171.6,139.3l-2.9,1.7l0,0l-37.9,21.9l-38-22h0l-2.9-1.7L55.5,105V22.9h151.3
		v84.9L171.6,139.3z"/>
</g>
<linearGradient id="SVGID_6_" gradientUnits="userSpaceOnUse" x1="18.3536" y1="-94.4095" x2="18.3536" y2="-188.6128">
	<stop  offset="0" style="stop-color:#172A17"/>
	<stop  offset="1" style="stop-color:#80C788"/>
</linearGradient>
<path fill="url(#SVGID_6_)" d="M18.4-188.6c-26.2,0-47.5,21.3-47.5,47.5c0,18.7,10.8,34.8,26.5,42.6c0.1,0.1,0.3,0.1,0.4,0.2
	c0.1,0,0.1,0.1,0.2,0.1c0.3-0.2,0.7-0.3,1.1-0.1c11.7,5.8,26.9,4.6,38.6-0.3c0.5-0.2,1.1,0,1.4,0.3c0,0,0.1,0,0.1-0.1
	c0.1,0,0.1-0.1,0.2-0.1c15.8-7.7,26.6-23.9,26.6-42.7C65.9-167.3,44.6-188.6,18.4-188.6z"/>
<path fill="#EAD57E" d="M18.9-129.7h23.9v-15.1l-24.1-12.7L-6-144.3v44.7C1.4-96,9.6-94,18.4-94h0.1c0.2,0,0.3,0,0.5,0V-129.7z"/>
<polygon fill="#D6C16A" points="18.6,-157.5 -5.9,-144.9 -5.9,-129.1 18.6,-129.1 "/>
<path fill="#D6C16A" d="M43-129v29.3c-0.1,0-0.1,0.1-0.2,0.1c-0.1,0-0.1,0.1-0.2,0.1c-1.4,0.7-2.8,1.3-4.2,1.8
	c-0.1,0-0.2,0.1-0.4,0.1c-3.2,1.2-6.6,2.1-10.1,2.7c-3,0.5-6.2,0.8-9.4,0.8v-35H43z"/>
<path fill="#FFF098" d="M56.2-135.3l-11.7-7c0,0,0,0,0,0l-1.7-1l-1.8,1l0,0l-21,12.1c0,0,0,0,0,0l-1.8,1l1.7,1c0,0,0,0,0,0l4.9,3
	l4.2,2.5l0,0l2.6,1.5c1,0.6,2.5,0.6,3.5,0l21-12.1C57.2-133.8,57.2-134.7,56.2-135.3z"/>
<path fill="#FFF098" d="M18.6-157.5l-1.3-0.8c0,0,0,0,0,0l-11.7-7c-1-0.6-2.5-0.6-3.5,0l-21,12.1c-1,0.6-1,1.5,0,2.1l11.7,7
	c0,0,0,0,0,0l1.3,0.8L18.6-157.5z"/>
<path fill="#FFF098" d="M18.5-157.5l1.3-0.8c0,0,0,0,0,0l11.7-7c1-0.6,2.5-0.6,3.5,0l21,12.1c1,0.6,1,1.5,0,2.1l-11.7,7l0,0
	l-1.3,0.8L18.5-157.5z"/>
<path fill="#FFF098" d="M16.7-128.2l1.7-1l-1.8-1c0,0,0,0,0,0l-21-12.1h0l-1.8-1l-1.7,1l0,0l-11.7,7c-1,0.6-0.9,1.5,0,2.1l18.6,10.7
	l0.7,0.4l0,0l1.7,1c1,0.6,2.5,0.5,3.5,0l3.2-1.9c0,0,0,0,0,0l5-3L16.7-128.2C16.7-128.2,16.7-128.2,16.7-128.2z"/>
<g opacity="0.8">
	<defs>
		<path id="SVGID_1_" opacity="0.8" d="M2.4-138c0,5.9,3.5,11.1,8.5,13.5l-7.2-19.6C2.8-142.3,2.4-140.2,2.4-138z M27.5-138.8
			c0-1.9-0.7-3.1-1.2-4.1c-0.8-1.2-1.5-2.3-1.5-3.5c0-1.4,1-2.7,2.5-2.7c0.1,0,0.1,0,0.2,0c-2.7-2.4-6.2-3.9-10.1-3.9
			c-5.2,0-9.9,2.7-12.5,6.8c0.4,0,0.7,0,1,0c1.6,0,4-0.2,4-0.2c0.8,0,0.9,1.1,0.1,1.2c0,0-0.8,0.1-1.7,0.1l5.5,16.3l3.3-9.8
			l-2.3-6.4c-0.8,0-1.6-0.1-1.6-0.1c-0.8,0-0.7-1.3,0.1-1.2c0,0,2.5,0.2,4,0.2c1.6,0,4-0.2,4-0.2c0.8,0,0.9,1.1,0.1,1.2
			c0,0-0.8,0.1-1.7,0.1l5.4,16.1l1.5-5C27.1-135.9,27.5-137.5,27.5-138.8z M17.6-136.7l-4.5,13.1c1.3,0.4,2.8,0.6,4.2,0.6
			c1.7,0,3.4-0.3,5-0.9c0-0.1-0.1-0.1-0.1-0.2L17.6-136.7z M30.5-145.2c0.1,0.5,0.1,1,0.1,1.5c0,1.5-0.3,3.2-1.1,5.4l-4.6,13.3
			c4.5-2.6,7.5-7.4,7.5-13C32.4-140.6,31.7-143.1,30.5-145.2z"/>
	</defs>
	<clipPath id="SVGID_7_">
		<use xlink:href="#SVGID_1_"  overflow="visible"/>
	</clipPath>
	<path clip-path="url(#SVGID_7_)" fill="#353535" d="M33.4-137.9l-1.1,0.6l0,0l-13.8,8l-13.9-8h0l-1.1-0.6l-12.5-12.5v-29.9h55.1
		v30.9L33.4-137.9z"/>
</g>
<rect x="-67.1" y="-109.5" fill="#FFFFFF" width="165" height="38"/>
<text transform="matrix(1 0 0 1 -48.6454 -87.5419)"><tspan x="0" y="0" fill="#999999" font-family="'MuseoSans-700'" font-size="18">WP/</tspan><tspan x="35.8" y="0" fill="#87C493" font-family="'MuseoSans-900'" font-size="18">Portability</tspan></text>
<path fill="#2B2B2B" d="M246-189.3c-26.2,0-47.5,21.3-47.5,47.5c0,18.7,10.8,34.8,26.5,42.6c0.1,0.1,0.3,0.1,0.4,0.2
	c0.1,0,0.1,0.1,0.2,0.1c0.3-0.2,0.7-0.3,1.1-0.1c11.7,5.8,26.9,4.6,38.6-0.3c0.5-0.2,1.1,0,1.4,0.3c0,0,0.1,0,0.1-0.1
	c0.1,0,0.1-0.1,0.2-0.1c15.8-7.7,26.6-23.9,26.6-42.7C293.5-168.1,272.3-189.3,246-189.3z"/>
<path fill="#A09F9E" d="M246.6-130.4h23.9v-15.1l-24.1-12.7L221.7-145v44.7c7.4,3.6,15.6,5.6,24.3,5.6h0.1c0.2,0,0.3,0,0.5,0V-130.4
	z"/>
<polygon fill="#C6C6C4" points="246.2,-158.2 221.7,-145.6 221.7,-129.9 246.2,-129.9 "/>
<path fill="#848483" d="M270.7-129.8v29.3c-0.1,0-0.1,0.1-0.2,0.1c-0.1,0-0.1,0.1-0.2,0.1c-1.4,0.7-2.8,1.3-4.2,1.8
	c-0.1,0-0.2,0.1-0.4,0.1c-3.2,1.2-6.6,2.1-10.1,2.7c-3,0.5-6.2,0.8-9.4,0.8v-35H270.7z"/>
<path fill="#D3D3D3" d="M283.9-136l-11.7-7c0,0,0,0,0,0l-1.7-1l-1.8,1l0,0l-21,12.1c0,0,0,0,0,0l-1.8,1l1.7,1c0,0,0,0,0,0l4.9,3
	l4.2,2.5l0,0l2.6,1.5c1,0.6,2.5,0.6,3.5,0l21-12.1C284.8-134.5,284.8-135.5,283.9-136z"/>
<path fill="#D3D3D3" d="M246.2-158.3l-1.3-0.8c0,0,0,0,0,0l-11.7-7c-1-0.6-2.5-0.6-3.5,0l-21,12.1c-1,0.6-1,1.5,0,2.1l11.7,7
	c0,0,0,0,0,0l1.3,0.8L246.2-158.3z"/>
<path fill="#D3D3D3" d="M246.1-158.2l1.3-0.8c0,0,0,0,0,0l11.7-7c1-0.6,2.5-0.6,3.5,0l21,12.1c1,0.6,1,1.5,0,2.1l-11.7,7l0,0
	l-1.3,0.8L246.1-158.2z"/>
<path fill="#D3D3D3" d="M244.3-128.9l1.7-1l-1.8-1c0,0,0,0,0,0l-21-12.1h0l-1.8-1l-1.7,1l0,0l-11.7,7c-1,0.6-0.9,1.5,0,2.1
	l18.6,10.7l0.7,0.4l0,0l1.7,1c1,0.6,2.5,0.5,3.5,0l3.2-1.9c0,0,0,0,0,0l5-3L244.3-128.9C244.3-128.9,244.3-128.9,244.3-128.9z"/>
<g>
	<defs>
		<path id="SVGID_2_" d="M230-138.8c0,5.9,3.5,11.1,8.5,13.5l-7.2-19.6C230.5-143,230-140.9,230-138.8z M255.2-139.5
			c0-1.9-0.7-3.1-1.2-4.1c-0.8-1.2-1.5-2.3-1.5-3.5c0-1.4,1-2.7,2.5-2.7c0.1,0,0.1,0,0.2,0c-2.7-2.4-6.2-3.9-10.1-3.9
			c-5.2,0-9.9,2.7-12.5,6.8c0.4,0,0.7,0,1,0c1.6,0,4-0.2,4-0.2c0.8,0,0.9,1.1,0.1,1.2c0,0-0.8,0.1-1.7,0.1l5.5,16.3l3.3-9.8
			l-2.3-6.4c-0.8,0-1.6-0.1-1.6-0.1c-0.8,0-0.7-1.3,0.1-1.2c0,0,2.5,0.2,4,0.2c1.6,0,4-0.2,4-0.2c0.8,0,0.9,1.1,0.1,1.2
			c0,0-0.8,0.1-1.7,0.1l5.4,16.1l1.5-5C254.8-136.6,255.2-138.2,255.2-139.5z M245.3-137.5l-4.5,13.1c1.3,0.4,2.8,0.6,4.2,0.6
			c1.7,0,3.4-0.3,5-0.9c0-0.1-0.1-0.1-0.1-0.2L245.3-137.5z M258.2-146c0.1,0.5,0.1,1,0.1,1.5c0,1.5-0.3,3.2-1.1,5.4l-4.6,13.3
			c4.5-2.6,7.5-7.4,7.5-13C260-141.4,259.4-143.8,258.2-146z"/>
	</defs>
	<clipPath id="SVGID_8_">
		<use xlink:href="#SVGID_2_"  overflow="visible"/>
	</clipPath>
	<path clip-path="url(#SVGID_8_)" fill="#FCFCFC" d="M261-138.6L260-138l0,0l-13.8,8l-13.9-8h0l-1.1-0.6l-12.5-12.5V-181h55.1v30.9
		L261-138.6z"/>
</g>
<rect x="160.5" y="-110.3" fill="#FFFFFF" width="165" height="38"/>
<text transform="matrix(1 0 0 1 179.0153 -88.2716)"><tspan x="0" y="0" fill="#999999" font-family="'MuseoSans-700'" font-size="18">WP/</tspan><tspan x="35.8" y="0" fill="#3A3A3A" font-family="'MuseoSans-900'" font-size="18">Portability</tspan></text>
<text transform="matrix(0.7 0 0 0.7 174.0152 -76.2716)" fill="#A9A8A8" font-family="'MuseoSans-300'" font-size="10">make</text>
<text transform="matrix(1 0 0 1 192.5088 -76.2716)" fill="#A9A8A8" font-family="'MuseoSans-300'" font-size="10"> </text>
<text transform="matrix(0.7 0 0 0.7 195.1993 -76.2716)" fill="#A9A8A8" font-family="'MuseoSans-300'" font-size="10">your</text>
<text transform="matrix(1 0 0 1 214.4488 -76.2716)" fill="#A9A8A8" font-family="'MuseoSans-300'" font-size="10"> </text>
<text transform="matrix(0.7 0 0 0.7 217.1392 -76.2716)" fill="#A9A8A8" font-family="'MuseoSans-300'" font-size="10">wordpress</text>
<text transform="matrix(1 0 0 1 259.0826 -76.2716)" fill="#A9A8A8" font-family="'MuseoSans-300'" font-size="10"> </text>
<text transform="matrix(0.7 0 0 0.7 261.772 -76.2716)" fill="#A9A8A8" font-family="'MuseoSans-300'" font-size="10">site</text>
<text transform="matrix(1 0 0 1 275.5621 -76.2716)" fill="#A9A8A8" font-family="'MuseoSans-300'" font-size="10"> </text>
<text transform="matrix(0.7 0 0 0.7 278.2525 -76.2716)" fill="#A9A8A8" font-family="'MuseoSans-300'" font-size="10">portable</text>
<text transform="matrix(0.7 0 0 0.7 -52.6455 -74.7139)" fill="#A9A8A8" font-family="'MuseoSans-300'" font-size="10">make</text>
<text transform="matrix(1 0 0 1 -34.1519 -74.7139)" fill="#A9A8A8" font-family="'MuseoSans-300'" font-size="10"> </text>
<text transform="matrix(0.7 0 0 0.7 -31.4614 -74.7139)" fill="#A9A8A8" font-family="'MuseoSans-300'" font-size="10">your</text>
<text transform="matrix(1 0 0 1 -12.2119 -74.7139)" fill="#A9A8A8" font-family="'MuseoSans-300'" font-size="10"> </text>
<text transform="matrix(0.7 0 0 0.7 -9.5215 -74.7139)" fill="#A9A8A8" font-family="'MuseoSans-300'" font-size="10">wordpress</text>
<text transform="matrix(1 0 0 1 32.4219 -74.7139)" fill="#A9A8A8" font-family="'MuseoSans-300'" font-size="10"> </text>
<text transform="matrix(0.7 0 0 0.7 35.1113 -74.7139)" fill="#A9A8A8" font-family="'MuseoSans-300'" font-size="10">site</text>
<text transform="matrix(1 0 0 1 48.9014 -74.7139)" fill="#A9A8A8" font-family="'MuseoSans-300'" font-size="10"> </text>
<text transform="matrix(0.7 0 0 0.7 51.5918 -74.7139)" fill="#A9A8A8" font-family="'MuseoSans-300'" font-size="10">portable</text>
</svg>
